<?xml version="1.0" encoding="UTF-8" standalone="no"?>
<!DOCTYPE svg PUBLIC "-//W3C//DTD SVG 1.1//EN" "http://www.w3.org/Graphics/SVG/1.1/DTD/svg11.dtd">
<svg width="100%" height="100%" viewBox="0 0 2000 2000" version="1.1" xmlns="http://www.w3.org/2000/svg" xmlns:xlink="http://www.w3.org/1999/xlink" xml:space="preserve" xmlns:serif="http://www.serif.com/" style="fill-rule:evenodd;clip-rule:evenodd;stroke-linecap:round;stroke-miterlimit:6;">
    <g transform="matrix(1,0,0,1,-1.059134,-202.432765)">
        <path d="M1647.786,1647.786L1106.149,1644.649L720.361,1286.077L499.912,1285.882L1126.275,1283.185L1120.691,910.479L354.845,906.59L358.955,1646.455L354.332,758.881L1647.786,757.079L1647.786,1647.786Z" style="fill:none;stroke:currentColor;stroke-width:41.67px;"/>
    </g>
    <g transform="matrix(0.986475,0,0,1,10.987666,250.900408)">
        <path d="M1647.786,530.413L1130.687,530.413" style="fill:none;stroke:currentColor;stroke-width:41.95px;"/>
    </g>
    <g transform="matrix(1,0,0,1,-1.059134,477.566995)">
        <path d="M1647.786,530.413L1130.687,530.413" style="fill:none;stroke:currentColor;stroke-width:41.67px;"/>
    </g>
    <g transform="matrix(1.444324,0,0,1,-743.450368,704.233582)">
        <path d="M1647.786,530.413L1130.687,530.413" style="fill:none;stroke:currentColor;stroke-width:33.54px;"/>
    </g>
</svg>
